<?xml version="1.0" encoding="UTF-8"?>
<svg width="1200" height="600" viewBox="0 0 1200 600" xmlns="http://www.w3.org/2000/svg">
  <title>Histogram of net finish times</title>
  <desc>Bar chart showing the number of finishers in one-minute buckets of net time.</desc>
  <rect x="0" y="0" width="1200" height="600" fill="#ffffff" />
  <line x1="70" y1="530" x2="1170" y2="530" stroke="#333333" stroke-width="1.5" />
  <line x1="70" y1="530" x2="70" y2="40" stroke="#333333" stroke-width="1.5" />
  <line x1="119.36" y1="530" x2="119.36" y2="536" stroke="#333333" stroke-width="1" />
  <text x="119.36" y="552" text-anchor="middle" font-size="12" fill="#333333">01:10</text>
  <line x1="189.87" y1="530" x2="189.87" y2="536" stroke="#333333" stroke-width="1" />
  <text x="189.87" y="552" text-anchor="middle" font-size="12" fill="#333333">01:20</text>
  <line x1="260.38" y1="530" x2="260.38" y2="536" stroke="#333333" stroke-width="1" />
  <text x="260.38" y="552" text-anchor="middle" font-size="12" fill="#333333">01:30</text>
  <line x1="330.90" y1="530" x2="330.90" y2="536" stroke="#333333" stroke-width="1" />
  <text x="330.90" y="552" text-anchor="middle" font-size="12" fill="#333333">01:40</text>
  <line x1="401.41" y1="530" x2="401.41" y2="536" stroke="#333333" stroke-width="1" />
  <text x="401.41" y="552" text-anchor="middle" font-size="12" fill="#333333">01:50</text>
  <line x1="471.92" y1="530" x2="471.92" y2="536" stroke="#333333" stroke-width="1" />
  <text x="471.92" y="552" text-anchor="middle" font-size="12" fill="#333333">02:00</text>
  <line x1="542.44" y1="530" x2="542.44" y2="536" stroke="#333333" stroke-width="1" />
  <text x="542.44" y="552" text-anchor="middle" font-size="12" fill="#333333">02:10</text>
  <line x1="612.95" y1="530" x2="612.95" y2="536" stroke="#333333" stroke-width="1" />
  <text x="612.95" y="552" text-anchor="middle" font-size="12" fill="#333333">02:20</text>
  <line x1="683.46" y1="530" x2="683.46" y2="536" stroke="#333333" stroke-width="1" />
  <text x="683.46" y="552" text-anchor="middle" font-size="12" fill="#333333">02:30</text>
  <line x1="753.97" y1="530" x2="753.97" y2="536" stroke="#333333" stroke-width="1" />
  <text x="753.97" y="552" text-anchor="middle" font-size="12" fill="#333333">02:40</text>
  <line x1="824.49" y1="530" x2="824.49" y2="536" stroke="#333333" stroke-width="1" />
  <text x="824.49" y="552" text-anchor="middle" font-size="12" fill="#333333">02:50</text>
  <line x1="895.00" y1="530" x2="895.00" y2="536" stroke="#333333" stroke-width="1" />
  <text x="895.00" y="552" text-anchor="middle" font-size="12" fill="#333333">03:00</text>
  <line x1="965.51" y1="530" x2="965.51" y2="536" stroke="#333333" stroke-width="1" />
  <text x="965.51" y="552" text-anchor="middle" font-size="12" fill="#333333">03:10</text>
  <line x1="1036.03" y1="530" x2="1036.03" y2="536" stroke="#333333" stroke-width="1" />
  <text x="1036.03" y="552" text-anchor="middle" font-size="12" fill="#333333">03:20</text>
  <line x1="1106.54" y1="530" x2="1106.54" y2="536" stroke="#333333" stroke-width="1" />
  <text x="1106.54" y="552" text-anchor="middle" font-size="12" fill="#333333">03:30</text>
  <line x1="64" y1="530.00" x2="70" y2="530.00" stroke="#333333" stroke-width="1" />
  <text x="60" y="530.00" text-anchor="end" alignment-baseline="middle" font-size="12" fill="#333333">0</text>
  <line x1="64" y1="448.33" x2="70" y2="448.33" stroke="#333333" stroke-width="1" />
  <text x="60" y="448.33" text-anchor="end" alignment-baseline="middle" font-size="12" fill="#333333">67</text>
  <line x1="64" y1="366.67" x2="70" y2="366.67" stroke="#333333" stroke-width="1" />
  <text x="60" y="366.67" text-anchor="end" alignment-baseline="middle" font-size="12" fill="#333333">133</text>
  <line x1="64" y1="285.00" x2="70" y2="285.00" stroke="#333333" stroke-width="1" />
  <text x="60" y="285.00" text-anchor="end" alignment-baseline="middle" font-size="12" fill="#333333">200</text>
  <line x1="64" y1="203.33" x2="70" y2="203.33" stroke="#333333" stroke-width="1" />
  <text x="60" y="203.33" text-anchor="end" alignment-baseline="middle" font-size="12" fill="#333333">267</text>
  <line x1="64" y1="121.67" x2="70" y2="121.67" stroke="#333333" stroke-width="1" />
  <text x="60" y="121.67" text-anchor="end" alignment-baseline="middle" font-size="12" fill="#333333">333</text>
  <line x1="64" y1="40.00" x2="70" y2="40.00" stroke="#333333" stroke-width="1" />
  <text x="60" y="40.00" text-anchor="end" alignment-baseline="middle" font-size="12" fill="#333333">400</text>
  <rect x="70.00" y="527.55" width="6.05" height="2.45" fill="#1f77b4"><title>01:03-01:04: 2</title></rect>
<rect x="77.05" y="528.77" width="6.05" height="1.23" fill="#1f77b4"><title>01:04-01:05: 1</title></rect>
<rect x="84.10" y="530.00" width="6.05" height="0.00" fill="#1f77b4"><title>01:05-01:06: 0</title></rect>
<rect x="91.15" y="528.77" width="6.05" height="1.23" fill="#1f77b4"><title>01:06-01:07: 1</title></rect>
<rect x="98.21" y="527.55" width="6.05" height="2.45" fill="#1f77b4"><title>01:07-01:08: 2</title></rect>
<rect x="105.26" y="528.77" width="6.05" height="1.23" fill="#1f77b4"><title>01:08-01:09: 1</title></rect>
<rect x="112.31" y="523.88" width="6.05" height="6.13" fill="#1f77b4"><title>01:09-01:10: 5</title></rect>
<rect x="119.36" y="527.55" width="6.05" height="2.45" fill="#1f77b4"><title>01:10-01:11: 2</title></rect>
<rect x="126.41" y="521.42" width="6.05" height="8.58" fill="#1f77b4"><title>01:11-01:12: 7</title></rect>
<rect x="133.46" y="517.75" width="6.05" height="12.25" fill="#1f77b4"><title>01:12-01:13: 10</title></rect>
<rect x="140.51" y="520.20" width="6.05" height="9.80" fill="#1f77b4"><title>01:13-01:14: 8</title></rect>
<rect x="147.56" y="511.63" width="6.05" height="18.38" fill="#1f77b4"><title>01:14-01:15: 15</title></rect>
<rect x="154.62" y="518.98" width="6.05" height="11.02" fill="#1f77b4"><title>01:15-01:16: 9</title></rect>
<rect x="161.67" y="511.63" width="6.05" height="18.38" fill="#1f77b4"><title>01:16-01:17: 15</title></rect>
<rect x="168.72" y="507.95" width="6.05" height="22.05" fill="#1f77b4"><title>01:17-01:18: 18</title></rect>
<rect x="175.77" y="504.27" width="6.05" height="25.73" fill="#1f77b4"><title>01:18-01:19: 21</title></rect>
<rect x="182.82" y="492.02" width="6.05" height="37.98" fill="#1f77b4"><title>01:19-01:20: 31</title></rect>
<rect x="189.87" y="494.48" width="6.05" height="35.52" fill="#1f77b4"><title>01:20-01:21: 29</title></rect>
<rect x="196.92" y="482.23" width="6.05" height="47.77" fill="#1f77b4"><title>01:21-01:22: 39</title></rect>
<rect x="203.97" y="484.68" width="6.05" height="45.32" fill="#1f77b4"><title>01:22-01:23: 37</title></rect>
<rect x="211.03" y="462.63" width="6.05" height="67.38" fill="#1f77b4"><title>01:23-01:24: 55</title></rect>
<rect x="218.08" y="458.95" width="6.05" height="71.05" fill="#1f77b4"><title>01:24-01:25: 58</title></rect>
<rect x="225.13" y="471.20" width="6.05" height="58.80" fill="#1f77b4"><title>01:25-01:26: 48</title></rect>
<rect x="232.18" y="463.85" width="6.05" height="66.15" fill="#1f77b4"><title>01:26-01:27: 54</title></rect>
<rect x="239.23" y="434.45" width="6.05" height="95.55" fill="#1f77b4"><title>01:27-01:28: 78</title></rect>
<rect x="246.28" y="408.73" width="6.05" height="121.27" fill="#1f77b4"><title>01:28-01:29: 99</title></rect>
<rect x="253.33" y="374.43" width="6.05" height="155.57" fill="#1f77b4"><title>01:29-01:30: 127</title></rect>
<rect x="260.38" y="389.13" width="6.05" height="140.88" fill="#1f77b4"><title>01:30-01:31: 115</title></rect>
<rect x="267.44" y="398.92" width="6.05" height="131.08" fill="#1f77b4"><title>01:31-01:32: 107</title></rect>
<rect x="274.49" y="395.25" width="6.05" height="134.75" fill="#1f77b4"><title>01:32-01:33: 110</title></rect>
<rect x="281.54" y="347.48" width="6.05" height="182.52" fill="#1f77b4"><title>01:33-01:34: 149</title></rect>
<rect x="288.59" y="349.93" width="6.05" height="180.07" fill="#1f77b4"><title>01:34-01:35: 147</title></rect>
<rect x="295.64" y="348.70" width="6.05" height="181.30" fill="#1f77b4"><title>01:35-01:36: 148</title></rect>
<rect x="302.69" y="356.05" width="6.05" height="173.95" fill="#1f77b4"><title>01:36-01:37: 142</title></rect>
<rect x="309.74" y="309.50" width="6.05" height="220.50" fill="#1f77b4"><title>01:37-01:38: 180</title></rect>
<rect x="316.79" y="273.98" width="6.05" height="256.02" fill="#1f77b4"><title>01:38-01:39: 209</title></rect>
<rect x="323.85" y="244.57" width="6.05" height="285.43" fill="#1f77b4"><title>01:39-01:40: 233</title></rect>
<rect x="330.90" y="283.78" width="6.05" height="246.22" fill="#1f77b4"><title>01:40-01:41: 201</title></rect>
<rect x="337.95" y="287.45" width="6.05" height="242.55" fill="#1f77b4"><title>01:41-01:42: 198</title></rect>
<rect x="345.00" y="232.32" width="6.05" height="297.68" fill="#1f77b4"><title>01:42-01:43: 243</title></rect>
<rect x="352.05" y="244.57" width="6.05" height="285.43" fill="#1f77b4"><title>01:43-01:44: 233</title></rect>
<rect x="359.10" y="178.43" width="6.05" height="351.57" fill="#1f77b4"><title>01:44-01:45: 287</title></rect>
<rect x="366.15" y="196.80" width="6.05" height="333.20" fill="#1f77b4"><title>01:45-01:46: 272</title></rect>
<rect x="373.21" y="217.63" width="6.05" height="312.38" fill="#1f77b4"><title>01:46-01:47: 255</title></rect>
<rect x="380.26" y="180.88" width="6.05" height="349.13" fill="#1f77b4"><title>01:47-01:48: 285</title></rect>
<rect x="387.31" y="198.02" width="6.05" height="331.98" fill="#1f77b4"><title>01:48-01:49: 271</title></rect>
<rect x="394.36" y="135.55" width="6.05" height="394.45" fill="#1f77b4"><title>01:49-01:50: 322</title></rect>
<rect x="401.41" y="164.95" width="6.05" height="365.05" fill="#1f77b4"><title>01:50-01:51: 298</title></rect>
<rect x="408.46" y="204.15" width="6.05" height="325.85" fill="#1f77b4"><title>01:51-01:52: 266</title></rect>
<rect x="415.51" y="156.38" width="6.05" height="373.63" fill="#1f77b4"><title>01:52-01:53: 305</title></rect>
<rect x="422.56" y="147.80" width="6.05" height="382.20" fill="#1f77b4"><title>01:53-01:54: 312</title></rect>
<rect x="429.62" y="158.83" width="6.05" height="371.17" fill="#1f77b4"><title>01:54-01:55: 303</title></rect>
<rect x="436.67" y="198.02" width="6.05" height="331.98" fill="#1f77b4"><title>01:55-01:56: 271</title></rect>
<rect x="443.72" y="118.40" width="6.05" height="411.60" fill="#1f77b4"><title>01:56-01:57: 336</title></rect>
<rect x="450.77" y="75.52" width="6.05" height="454.48" fill="#1f77b4"><title>01:57-01:58: 371</title></rect>
<rect x="457.82" y="68.18" width="6.05" height="461.82" fill="#1f77b4"><title>01:58-01:59: 377</title></rect>
<rect x="464.87" y="40.00" width="6.05" height="490.00" fill="#1f77b4"><title>01:59-02:00: 400</title></rect>
<rect x="471.92" y="141.68" width="6.05" height="388.32" fill="#1f77b4"><title>02:00-02:01: 317</title></rect>
<rect x="478.97" y="220.08" width="6.05" height="309.92" fill="#1f77b4"><title>02:01-02:02: 253</title></rect>
<rect x="486.03" y="240.90" width="6.05" height="289.10" fill="#1f77b4"><title>02:02-02:03: 236</title></rect>
<rect x="493.08" y="205.38" width="6.05" height="324.63" fill="#1f77b4"><title>02:03-02:04: 265</title></rect>
<rect x="500.13" y="236.00" width="6.05" height="294.00" fill="#1f77b4"><title>02:04-02:05: 240</title></rect>
<rect x="507.18" y="262.95" width="6.05" height="267.05" fill="#1f77b4"><title>02:05-02:06: 218</title></rect>
<rect x="514.23" y="240.90" width="6.05" height="289.10" fill="#1f77b4"><title>02:06-02:07: 236</title></rect>
<rect x="521.28" y="242.13" width="6.05" height="287.88" fill="#1f77b4"><title>02:07-02:08: 235</title></rect>
<rect x="528.33" y="226.20" width="6.05" height="303.80" fill="#1f77b4"><title>02:08-02:09: 248</title></rect>
<rect x="535.38" y="250.70" width="6.05" height="279.30" fill="#1f77b4"><title>02:09-02:10: 228</title></rect>
<rect x="542.44" y="318.07" width="6.05" height="211.93" fill="#1f77b4"><title>02:10-02:11: 173</title></rect>
<rect x="549.49" y="296.02" width="6.05" height="233.98" fill="#1f77b4"><title>02:11-02:12: 191</title></rect>
<rect x="556.54" y="311.95" width="6.05" height="218.05" fill="#1f77b4"><title>02:12-02:13: 178</title></rect>
<rect x="563.59" y="314.40" width="6.05" height="215.60" fill="#1f77b4"><title>02:13-02:14: 176</title></rect>
<rect x="570.64" y="308.27" width="6.05" height="221.73" fill="#1f77b4"><title>02:14-02:15: 181</title></rect>
<rect x="577.69" y="324.20" width="6.05" height="205.80" fill="#1f77b4"><title>02:15-02:16: 168</title></rect>
<rect x="584.74" y="331.55" width="6.05" height="198.45" fill="#1f77b4"><title>02:16-02:17: 162</title></rect>
<rect x="591.79" y="348.70" width="6.05" height="181.30" fill="#1f77b4"><title>02:17-02:18: 148</title></rect>
<rect x="598.85" y="338.90" width="6.05" height="191.10" fill="#1f77b4"><title>02:18-02:19: 156</title></rect>
<rect x="605.90" y="343.80" width="6.05" height="186.20" fill="#1f77b4"><title>02:19-02:20: 152</title></rect>
<rect x="612.95" y="357.27" width="6.05" height="172.73" fill="#1f77b4"><title>02:20-02:21: 141</title></rect>
<rect x="620.00" y="400.15" width="6.05" height="129.85" fill="#1f77b4"><title>02:21-02:22: 106</title></rect>
<rect x="627.05" y="398.92" width="6.05" height="131.08" fill="#1f77b4"><title>02:22-02:23: 107</title></rect>
<rect x="634.10" y="386.68" width="6.05" height="143.32" fill="#1f77b4"><title>02:23-02:24: 117</title></rect>
<rect x="641.15" y="414.85" width="6.05" height="115.15" fill="#1f77b4"><title>02:24-02:25: 94</title></rect>
<rect x="648.21" y="416.07" width="6.05" height="113.93" fill="#1f77b4"><title>02:25-02:26: 93</title></rect>
<rect x="655.26" y="422.20" width="6.05" height="107.80" fill="#1f77b4"><title>02:26-02:27: 88</title></rect>
<rect x="662.31" y="401.38" width="6.05" height="128.63" fill="#1f77b4"><title>02:27-02:28: 105</title></rect>
<rect x="669.36" y="433.23" width="6.05" height="96.77" fill="#1f77b4"><title>02:28-02:29: 79</title></rect>
<rect x="676.41" y="434.45" width="6.05" height="95.55" fill="#1f77b4"><title>02:29-02:30: 78</title></rect>
<rect x="683.46" y="455.27" width="6.05" height="74.73" fill="#1f77b4"><title>02:30-02:31: 61</title></rect>
<rect x="690.51" y="433.23" width="6.05" height="96.77" fill="#1f77b4"><title>02:31-02:32: 79</title></rect>
<rect x="697.56" y="462.63" width="6.05" height="67.38" fill="#1f77b4"><title>02:32-02:33: 55</title></rect>
<rect x="704.62" y="465.07" width="6.05" height="64.93" fill="#1f77b4"><title>02:33-02:34: 53</title></rect>
<rect x="711.67" y="484.68" width="6.05" height="45.32" fill="#1f77b4"><title>02:34-02:35: 37</title></rect>
<rect x="718.72" y="482.23" width="6.05" height="47.77" fill="#1f77b4"><title>02:35-02:36: 39</title></rect>
<rect x="725.77" y="476.10" width="6.05" height="53.90" fill="#1f77b4"><title>02:36-02:37: 44</title></rect>
<rect x="732.82" y="468.75" width="6.05" height="61.25" fill="#1f77b4"><title>02:37-02:38: 50</title></rect>
<rect x="739.87" y="482.23" width="6.05" height="47.77" fill="#1f77b4"><title>02:38-02:39: 39</title></rect>
<rect x="746.92" y="490.80" width="6.05" height="39.20" fill="#1f77b4"><title>02:39-02:40: 32</title></rect>
<rect x="753.97" y="500.60" width="6.05" height="29.40" fill="#1f77b4"><title>02:40-02:41: 24</title></rect>
<rect x="761.03" y="493.25" width="6.05" height="36.75" fill="#1f77b4"><title>02:41-02:42: 30</title></rect>
<rect x="768.08" y="496.93" width="6.05" height="33.07" fill="#1f77b4"><title>02:42-02:43: 27</title></rect>
<rect x="775.13" y="493.25" width="6.05" height="36.75" fill="#1f77b4"><title>02:43-02:44: 30</title></rect>
<rect x="782.18" y="493.25" width="6.05" height="36.75" fill="#1f77b4"><title>02:44-02:45: 30</title></rect>
<rect x="789.23" y="506.73" width="6.05" height="23.27" fill="#1f77b4"><title>02:45-02:46: 19</title></rect>
<rect x="796.28" y="503.05" width="6.05" height="26.95" fill="#1f77b4"><title>02:46-02:47: 22</title></rect>
<rect x="803.33" y="515.30" width="6.05" height="14.70" fill="#1f77b4"><title>02:47-02:48: 12</title></rect>
<rect x="810.38" y="518.98" width="6.05" height="11.02" fill="#1f77b4"><title>02:48-02:49: 9</title></rect>
<rect x="817.44" y="511.63" width="6.05" height="18.38" fill="#1f77b4"><title>02:49-02:50: 15</title></rect>
<rect x="824.49" y="509.18" width="6.05" height="20.82" fill="#1f77b4"><title>02:50-02:51: 17</title></rect>
<rect x="831.54" y="520.20" width="6.05" height="9.80" fill="#1f77b4"><title>02:51-02:52: 8</title></rect>
<rect x="838.59" y="517.75" width="6.05" height="12.25" fill="#1f77b4"><title>02:52-02:53: 10</title></rect>
<rect x="845.64" y="521.42" width="6.05" height="8.58" fill="#1f77b4"><title>02:53-02:54: 7</title></rect>
<rect x="852.69" y="509.18" width="6.05" height="20.82" fill="#1f77b4"><title>02:54-02:55: 17</title></rect>
<rect x="859.74" y="514.08" width="6.05" height="15.92" fill="#1f77b4"><title>02:55-02:56: 13</title></rect>
<rect x="866.79" y="523.88" width="6.05" height="6.13" fill="#1f77b4"><title>02:56-02:57: 5</title></rect>
<rect x="873.85" y="523.88" width="6.05" height="6.13" fill="#1f77b4"><title>02:57-02:58: 5</title></rect>
<rect x="880.90" y="523.88" width="6.05" height="6.13" fill="#1f77b4"><title>02:58-02:59: 5</title></rect>
<rect x="887.95" y="527.55" width="6.05" height="2.45" fill="#1f77b4"><title>02:59-03:00: 2</title></rect>
<rect x="895.00" y="526.33" width="6.05" height="3.67" fill="#1f77b4"><title>03:00-03:01: 3</title></rect>
<rect x="902.05" y="520.20" width="6.05" height="9.80" fill="#1f77b4"><title>03:01-03:02: 8</title></rect>
<rect x="909.10" y="528.77" width="6.05" height="1.23" fill="#1f77b4"><title>03:02-03:03: 1</title></rect>
<rect x="916.15" y="526.33" width="6.05" height="3.67" fill="#1f77b4"><title>03:03-03:04: 3</title></rect>
<rect x="923.21" y="526.33" width="6.05" height="3.67" fill="#1f77b4"><title>03:04-03:05: 3</title></rect>
<rect x="930.26" y="526.33" width="6.05" height="3.67" fill="#1f77b4"><title>03:05-03:06: 3</title></rect>
<rect x="937.31" y="525.10" width="6.05" height="4.90" fill="#1f77b4"><title>03:06-03:07: 4</title></rect>
<rect x="944.36" y="528.77" width="6.05" height="1.23" fill="#1f77b4"><title>03:07-03:08: 1</title></rect>
<rect x="951.41" y="528.77" width="6.05" height="1.23" fill="#1f77b4"><title>03:08-03:09: 1</title></rect>
<rect x="958.46" y="528.77" width="6.05" height="1.23" fill="#1f77b4"><title>03:09-03:10: 1</title></rect>
<rect x="965.51" y="528.77" width="6.05" height="1.23" fill="#1f77b4"><title>03:10-03:11: 1</title></rect>
<rect x="972.56" y="530.00" width="6.05" height="0.00" fill="#1f77b4"><title>03:11-03:12: 0</title></rect>
<rect x="979.62" y="527.55" width="6.05" height="2.45" fill="#1f77b4"><title>03:12-03:13: 2</title></rect>
<rect x="986.67" y="527.55" width="6.05" height="2.45" fill="#1f77b4"><title>03:13-03:14: 2</title></rect>
<rect x="993.72" y="528.77" width="6.05" height="1.23" fill="#1f77b4"><title>03:14-03:15: 1</title></rect>
<rect x="1000.77" y="527.55" width="6.05" height="2.45" fill="#1f77b4"><title>03:15-03:16: 2</title></rect>
<rect x="1007.82" y="530.00" width="6.05" height="0.00" fill="#1f77b4"><title>03:16-03:17: 0</title></rect>
<rect x="1014.87" y="527.55" width="6.05" height="2.45" fill="#1f77b4"><title>03:17-03:18: 2</title></rect>
<rect x="1021.92" y="530.00" width="6.05" height="0.00" fill="#1f77b4"><title>03:18-03:19: 0</title></rect>
<rect x="1028.97" y="528.77" width="6.05" height="1.23" fill="#1f77b4"><title>03:19-03:20: 1</title></rect>
<rect x="1036.03" y="530.00" width="6.05" height="0.00" fill="#1f77b4"><title>03:20-03:21: 0</title></rect>
<rect x="1043.08" y="527.55" width="6.05" height="2.45" fill="#1f77b4"><title>03:21-03:22: 2</title></rect>
<rect x="1050.13" y="527.55" width="6.05" height="2.45" fill="#1f77b4"><title>03:22-03:23: 2</title></rect>
<rect x="1057.18" y="530.00" width="6.05" height="0.00" fill="#1f77b4"><title>03:23-03:24: 0</title></rect>
<rect x="1064.23" y="530.00" width="6.05" height="0.00" fill="#1f77b4"><title>03:24-03:25: 0</title></rect>
<rect x="1071.28" y="530.00" width="6.05" height="0.00" fill="#1f77b4"><title>03:25-03:26: 0</title></rect>
<rect x="1078.33" y="530.00" width="6.05" height="0.00" fill="#1f77b4"><title>03:26-03:27: 0</title></rect>
<rect x="1085.38" y="530.00" width="6.05" height="0.00" fill="#1f77b4"><title>03:27-03:28: 0</title></rect>
<rect x="1092.44" y="530.00" width="6.05" height="0.00" fill="#1f77b4"><title>03:28-03:29: 0</title></rect>
<rect x="1099.49" y="530.00" width="6.05" height="0.00" fill="#1f77b4"><title>03:29-03:30: 0</title></rect>
<rect x="1106.54" y="530.00" width="6.05" height="0.00" fill="#1f77b4"><title>03:30-03:31: 0</title></rect>
<rect x="1113.59" y="530.00" width="6.05" height="0.00" fill="#1f77b4"><title>03:31-03:32: 0</title></rect>
<rect x="1120.64" y="530.00" width="6.05" height="0.00" fill="#1f77b4"><title>03:32-03:33: 0</title></rect>
<rect x="1127.69" y="530.00" width="6.05" height="0.00" fill="#1f77b4"><title>03:33-03:34: 0</title></rect>
<rect x="1134.74" y="530.00" width="6.05" height="0.00" fill="#1f77b4"><title>03:34-03:35: 0</title></rect>
<rect x="1141.79" y="530.00" width="6.05" height="0.00" fill="#1f77b4"><title>03:35-03:36: 0</title></rect>
<rect x="1148.85" y="530.00" width="6.05" height="0.00" fill="#1f77b4"><title>03:36-03:37: 0</title></rect>
<rect x="1155.90" y="528.77" width="6.05" height="1.23" fill="#1f77b4"><title>03:37-03:38: 1</title></rect>
<rect x="1162.95" y="530.00" width="6.05" height="0.00" fill="#1f77b4"><title>03:38-03:39: 0</title></rect>
  <text x="600" y="580" text-anchor="middle" font-size="14" fill="#333333">Net finish time (1-minute buckets, labels every 10 min)</text>
  <text x="20" y="300" text-anchor="middle" font-size="14" fill="#333333" transform="rotate(-90 20 300)">Number of finishers</text>
</svg>